<svg width="20" height="20" viewBox="0 0 20 20" fill="none" xmlns="http://www.w3.org/2000/svg">
<g id="search-icon" clip-path="url(#clip0_2_10)">
<g id="Layer 2">
<g id="Search">
<path id="Vector" d="M19.7072 18.2879L15.4721 14.0537C15.2639 13.8463 14.982 13.7299 14.6881 13.7299C14.3942 13.7299 14.1123 13.8463 13.9041 14.0537C12.7881 15.1325 11.3458 15.8107 9.80299 15.9821C8.2602 16.1535 6.70412 15.8084 5.37855 15.0008C4.05297 14.1932 3.03278 12.9688 2.47779 11.5195C1.92281 10.0701 1.86439 8.47755 2.31169 6.99141C2.75899 5.50526 3.68673 4.20944 4.94957 3.30696C6.21242 2.40447 7.73902 1.94631 9.29023 2.00423C10.8414 2.06216 12.3296 2.63292 13.5216 3.62708C14.7136 4.62124 15.542 5.98264 15.8772 7.498C16.1174 8.59737 16.0926 9.73807 15.805 10.826C15.771 10.9534 15.7625 11.0863 15.7799 11.217C15.7973 11.3477 15.8403 11.4737 15.9064 11.5879C15.9725 11.702 16.0604 11.802 16.1651 11.8821C16.2699 11.9622 16.3894 12.021 16.5169 12.0549C16.7743 12.1235 17.0484 12.0871 17.2789 11.9536C17.5094 11.8201 17.6775 11.6006 17.7461 11.3432C18.2986 9.26696 18.0932 7.0618 17.1668 5.1232C16.2404 3.18461 14.6535 1.6394 12.6907 0.764681C10.7279 -0.110037 8.51767 -0.257039 6.4563 0.350035C4.39493 0.957109 2.6173 2.27855 1.4422 4.07737C0.267098 5.87619 -0.228604 8.03473 0.043989 10.1659C0.316582 12.297 1.33964 14.2614 2.92969 15.7067C4.51974 17.1519 6.57277 17.9836 8.72061 18.0525C10.8684 18.1214 12.9706 17.423 14.65 16.0826L18.2875 19.7153C18.3806 19.8087 18.4912 19.8827 18.613 19.9333C18.7349 19.9838 18.8654 20.0098 18.9973 20.0098C19.1292 20.0098 19.2598 19.9838 19.3816 19.9333C19.5034 19.8827 19.614 19.8087 19.7072 19.7153C19.8017 19.6221 19.8768 19.511 19.9281 19.3884C19.9794 19.2659 20.0058 19.1344 20.0058 19.0016C20.0058 18.8688 19.9794 18.7373 19.9281 18.6148C19.8768 18.4923 19.8017 18.3812 19.7072 18.2879Z" fill="#2A2A2A"/>
<path id="Vector_2" d="M12.0313 12.0289C11.8711 11.8801 11.666 11.7887 11.4482 11.7691C11.2305 11.7495 11.0124 11.8028 10.8282 11.9206C10.3082 12.2414 9.71179 12.4169 9.10096 12.4289C8.49013 12.4408 7.88726 12.2889 7.35513 11.9888C7.17474 11.8835 6.9651 11.8395 6.75761 11.8634C6.55012 11.8872 6.35593 11.9777 6.20414 12.1211L6.14398 12.1772C6.03628 12.2798 5.95371 12.4059 5.90272 12.5456C5.85172 12.6853 5.83367 12.8349 5.84997 12.9827C5.86627 13.1306 5.91648 13.2727 5.99669 13.3979C6.0769 13.5232 6.18495 13.6282 6.31242 13.7049C7.16979 14.1991 8.14588 14.4499 9.13535 14.4301C10.1248 14.4103 11.0901 14.1207 11.927 13.5926C12.0493 13.5149 12.1525 13.4108 12.2291 13.2878C12.3057 13.1649 12.3537 13.0263 12.3695 12.8823C12.3853 12.7383 12.3685 12.5926 12.3203 12.456C12.2722 12.3194 12.194 12.1953 12.0914 12.093L12.0313 12.0289Z" fill="#2A2A2A"/>
</g>
</g>
</g>
<defs>
<clipPath id="clip0_2_10">
<rect width="20" height="20" fill="white"/>
</clipPath>
</defs>
</svg>
